<svg width="136" height="26" viewBox="0 0 136 26" fill="none" xmlns="http://www.w3.org/2000/svg">
<path d="M29.5977 9.44287H32.7572L35.1574 15.8791H35.1982L37.42 9.44287H40.3655L36.62 18.9214H33.5216L29.5977 9.44287Z" fill="#121212"/>
<path d="M49.0387 17.2806C48.5699 17.8768 47.9788 18.3405 47.2653 18.6667C46.5519 18.9928 45.8079 19.1559 45.0435 19.1559C44.3147 19.1559 43.6319 19.0387 42.9847 18.8043C42.3426 18.5699 41.782 18.2335 41.3081 17.8004C40.8342 17.3672 40.4622 16.8423 40.187 16.2308C39.9118 15.6193 39.7793 14.9364 39.7793 14.1822C39.7793 13.428 39.9169 12.7451 40.187 12.1336C40.4622 11.5221 40.8342 10.9972 41.3081 10.564C41.782 10.1309 42.3426 9.79454 42.9847 9.56012C43.6268 9.3257 44.3147 9.2085 45.0435 9.2085C45.7212 9.2085 46.3328 9.3257 46.8882 9.56012C47.4386 9.79454 47.9074 10.1309 48.2947 10.564C48.6769 11.0023 48.9725 11.5221 49.1814 12.1336C49.3904 12.7451 49.4923 13.428 49.4923 14.1822V15.0995H42.6993C42.8165 15.66 43.0713 16.1034 43.4586 16.4346C43.851 16.7659 44.33 16.934 44.9008 16.934C45.3798 16.934 45.7875 16.827 46.1187 16.613C46.45 16.399 46.7404 16.1238 46.985 15.7823L49.0387 17.2806ZM46.5621 13.1069C46.5774 12.6126 46.4143 12.1897 46.0729 11.838C45.7365 11.4864 45.2983 11.3131 44.7683 11.3131C44.4421 11.3131 44.1568 11.3641 43.9122 11.4711C43.6675 11.573 43.4535 11.7106 43.2803 11.8686C43.107 12.0317 42.9694 12.2202 42.8726 12.4343C42.7757 12.6483 42.7197 12.8725 42.7044 13.1069H46.5621Z" fill="#121212"/>
<path d="M50.2876 9.44291H53.2127V10.9615H53.2535C53.5643 10.3755 53.9363 9.93723 54.3644 9.64675C54.7925 9.35628 55.3326 9.2085 55.9849 9.2085C56.1531 9.2085 56.3213 9.21359 56.4894 9.22888C56.6576 9.24417 56.8156 9.26965 56.9583 9.30532V11.9756C56.7493 11.9094 56.5455 11.8635 56.3416 11.8278C56.1378 11.7973 55.9289 11.7769 55.7097 11.7769C55.1492 11.7769 54.7109 11.8533 54.3848 12.0113C54.0586 12.1693 53.8089 12.3833 53.6357 12.6636C53.4624 12.9439 53.3452 13.2802 53.2942 13.6675C53.2433 14.0599 53.2178 14.488 53.2178 14.9568V18.9164H50.2927V9.44291H50.2876Z" fill="#121212"/>
<path d="M57.4424 6.45674C57.4424 5.9879 57.6105 5.59041 57.9418 5.25917C58.273 4.92793 58.6705 4.75977 59.1394 4.75977C59.6082 4.75977 60.0057 4.92793 60.3369 5.25917C60.6682 5.59041 60.8363 5.9879 60.8363 6.45674C60.8363 6.92557 60.6682 7.32306 60.3369 7.6543C60.0057 7.98554 59.6082 8.15371 59.1394 8.15371C58.6705 8.15371 58.273 7.98554 57.9418 7.6543C57.6105 7.32815 57.4424 6.92557 57.4424 6.45674ZM57.6768 9.443H60.6019V18.9216H57.6768V9.443Z" fill="#121212"/>
<path d="M63.3332 11.782H61.4019V9.44293H63.3332V7.76634C63.3332 7.24655 63.3791 6.75733 63.4708 6.29359C63.5626 5.82986 63.7358 5.42727 63.9957 5.07565C64.2556 4.72402 64.6276 4.44884 65.1168 4.245C65.6061 4.04116 66.2431 3.94434 67.038 3.94434C67.3387 3.94434 67.6292 3.95962 67.9145 3.9851C68.1999 4.01058 68.4802 4.05645 68.7554 4.1227L68.6178 6.59935C68.4496 6.53311 68.2916 6.48724 68.149 6.45157C68.0063 6.42099 67.8432 6.40061 67.6597 6.40061C67.1909 6.40061 66.8393 6.50253 66.6049 6.70127C66.3705 6.90511 66.2532 7.31789 66.2532 7.9396V9.44293H68.419V11.782H66.2532V18.9164H63.3281V11.782H63.3332Z" fill="#121212"/>
<path d="M73.8208 20.4604C73.6271 20.9649 73.4385 21.4134 73.2551 21.8057C73.0716 22.1981 72.8423 22.5243 72.562 22.7893C72.2818 23.0543 71.9301 23.2581 71.497 23.3957C71.0689 23.5333 70.5032 23.5995 69.8 23.5995C69.0458 23.5995 68.3171 23.4823 67.6138 23.2479L68.0062 20.8477C68.4496 21.0413 68.9031 21.1382 69.3719 21.1382C69.6981 21.1382 69.9631 21.1025 70.172 21.0312C70.3809 20.9598 70.5542 20.8579 70.6867 20.7203C70.8243 20.5827 70.9364 20.4196 71.0281 20.2209C71.1199 20.0272 71.2167 19.7979 71.3186 19.538L71.5326 18.9928L67.3794 9.43774H70.5389L72.9748 15.6956H73.0156L75.0998 9.43774H78.1014L73.8208 20.4604Z" fill="#121212"/>
<path d="M78.6211 9.44291H81.429V10.7322H81.4698C81.5615 10.5487 81.6889 10.3704 81.8622 10.1869C82.0303 10.0035 82.2342 9.8404 82.4686 9.69771C82.703 9.55503 82.968 9.43782 83.2687 9.34609C83.5693 9.25436 83.8904 9.2085 84.242 9.2085C84.9045 9.2085 85.4905 9.34609 86.0052 9.61618C86.5199 9.89136 86.9072 10.3194 87.1671 10.9055C87.5034 10.2939 87.9162 9.86079 88.3952 9.60089C88.8743 9.34099 89.4654 9.2085 90.1686 9.2085C90.8056 9.2085 91.3407 9.31551 91.779 9.52955C92.2121 9.74358 92.5587 10.034 92.8135 10.4061C93.0683 10.7781 93.2466 11.2112 93.3587 11.7106C93.4709 12.21 93.5269 12.7451 93.5269 13.321V18.9164H90.6018V13.4025C90.6018 12.9592 90.505 12.5821 90.3215 12.261C90.133 11.9451 89.7966 11.782 89.3176 11.782C88.9813 11.782 88.6959 11.838 88.4717 11.9501C88.2424 12.0623 88.064 12.2151 87.9264 12.4088C87.7888 12.6024 87.692 12.8318 87.6359 13.0917C87.5799 13.3516 87.5493 13.6267 87.5493 13.9121V18.9215H84.6242V13.9121C84.6242 13.7439 84.6191 13.535 84.6038 13.2904C84.5885 13.0458 84.5478 12.8114 84.4662 12.5872C84.3898 12.368 84.2624 12.1795 84.084 12.0215C83.9108 11.8635 83.6509 11.7871 83.3145 11.7871C82.9374 11.7871 82.6317 11.8533 82.3972 11.9909C82.1628 12.1285 81.9845 12.312 81.8622 12.5362C81.7399 12.7655 81.6583 13.0203 81.6175 13.3057C81.5768 13.5911 81.5615 13.8917 81.5615 14.2026V18.9215H78.6364V9.44291H78.6211Z" fill="#121212"/>
<path d="M100.457 20.4604C100.264 20.9649 100.075 21.4134 99.8918 21.8057C99.7084 22.1981 99.479 22.5243 99.1988 22.7893C98.9185 23.0543 98.5669 23.2581 98.1337 23.3957C97.7056 23.5333 97.14 23.5995 96.4367 23.5995C95.6825 23.5995 94.9538 23.4823 94.2505 23.2479L94.6429 20.8477C95.0863 21.0413 95.5398 21.1382 96.0086 21.1382C96.3348 21.1382 96.5998 21.1025 96.8087 21.0312C97.0177 20.9598 97.1909 20.8579 97.3234 20.7203C97.461 20.5827 97.5731 20.4196 97.6649 20.2209C97.7566 20.0272 97.8534 19.7979 97.9553 19.538L98.1694 18.9928L94.0161 9.43774H97.1756L99.6115 15.6956H99.6523L101.737 9.43774H104.738L100.457 20.4604Z" fill="#121212"/>
<path d="M110.813 17.729H110.772C110.446 18.2335 110.013 18.6004 109.478 18.8195C108.937 19.0386 108.367 19.1507 107.771 19.1507C107.327 19.1507 106.904 19.0896 106.491 18.9673C106.084 18.845 105.722 18.6564 105.411 18.4118C105.1 18.1672 104.851 17.8615 104.672 17.4945C104.489 17.1327 104.397 16.7098 104.397 16.2256C104.397 15.6804 104.499 15.2166 104.698 14.8395C104.901 14.4624 105.172 14.1516 105.518 13.9019C105.865 13.6572 106.257 13.4636 106.7 13.326C107.144 13.1884 107.602 13.0865 108.076 13.0253C108.55 12.9591 109.024 12.9234 109.498 12.9081C109.972 12.8928 110.41 12.8878 110.813 12.8878C110.813 12.368 110.629 11.9552 110.257 11.6494C109.885 11.3437 109.447 11.1908 108.943 11.1908C108.464 11.1908 108.025 11.2927 107.628 11.4914C107.23 11.6953 106.879 11.9705 106.563 12.3221L105.003 10.7219C105.549 10.2174 106.186 9.83524 106.914 9.58044C107.643 9.32564 108.397 9.19824 109.177 9.19824C110.033 9.19824 110.741 9.30526 111.292 9.51929C111.842 9.73332 112.286 10.0493 112.617 10.4671C112.948 10.885 113.177 11.3946 113.31 11.996C113.437 12.6024 113.504 13.3005 113.504 14.0904V18.9061H110.813V17.729ZM110.089 14.7682C109.87 14.7682 109.59 14.7784 109.259 14.7988C108.927 14.8191 108.606 14.8752 108.301 14.9669C107.995 15.0587 107.735 15.1962 107.521 15.3746C107.307 15.5581 107.2 15.8129 107.2 16.1339C107.2 16.4855 107.348 16.7454 107.648 16.9136C107.949 17.0818 108.26 17.1684 108.586 17.1684C108.871 17.1684 109.146 17.1276 109.417 17.0512C109.682 16.9747 109.921 16.8626 110.13 16.7199C110.339 16.5773 110.502 16.3938 110.629 16.1747C110.752 15.9555 110.813 15.6957 110.813 15.395V14.7733H110.089V14.7682Z" fill="#121212"/>
<path d="M124.5 18.1215C124.5 19.9153 124.047 21.2759 123.145 22.2085C122.243 23.1359 120.867 23.6048 119.022 23.6048C118.176 23.6048 117.346 23.508 116.525 23.3245C115.705 23.1359 114.95 22.769 114.263 22.2238L115.883 19.8082C116.337 20.1854 116.816 20.486 117.315 20.7051C117.814 20.9243 118.365 21.0364 118.961 21.0364C119.858 21.0364 120.515 20.8173 120.938 20.3841C121.361 19.9509 121.57 19.3904 121.57 18.7177V17.8004H121.529C121.193 18.254 120.77 18.575 120.271 18.7636C119.771 18.9521 119.297 19.0438 118.859 19.0438C118.156 19.0438 117.519 18.9215 116.948 18.682C116.377 18.4425 115.883 18.1062 115.475 17.6679C115.068 17.2348 114.752 16.715 114.528 16.1187C114.308 15.5225 114.196 14.8651 114.196 14.1517C114.196 13.53 114.298 12.9185 114.497 12.3171C114.701 11.7209 114.986 11.1909 115.353 10.7374C115.725 10.2838 116.174 9.9169 116.709 9.63662C117.244 9.35634 117.845 9.21875 118.523 9.21875C118.941 9.21875 119.318 9.26461 119.664 9.35634C120.011 9.44807 120.317 9.56528 120.592 9.70797C120.867 9.85065 121.096 10.0086 121.295 10.187C121.489 10.3603 121.647 10.5335 121.764 10.7017H121.805V9.45317H124.495V18.1215H124.5ZM117.132 14.1211C117.132 14.432 117.188 14.7275 117.305 15.0078C117.422 15.2881 117.585 15.5327 117.804 15.7467C118.023 15.9608 118.268 16.134 118.543 16.2614C118.823 16.3939 119.129 16.4551 119.471 16.4551C119.797 16.4551 120.103 16.3888 120.388 16.2614C120.673 16.134 120.923 15.9608 121.137 15.7467C121.351 15.5327 121.519 15.283 121.636 15.0078C121.754 14.7275 121.81 14.432 121.81 14.1211C121.81 13.8103 121.754 13.5147 121.636 13.2344C121.519 12.9541 121.356 12.7095 121.137 12.4955C120.923 12.2814 120.673 12.1082 120.388 11.9808C120.103 11.8534 119.797 11.7871 119.471 11.7871C119.134 11.7871 118.823 11.8534 118.543 11.9808C118.263 12.1133 118.018 12.2814 117.804 12.4955C117.59 12.7095 117.422 12.9592 117.305 13.2344C117.188 13.5147 117.132 13.8103 117.132 14.1211Z" fill="#121212"/>
<path d="M134.642 17.2806C134.173 17.8768 133.582 18.3405 132.868 18.6667C132.155 18.9928 131.411 19.1559 130.647 19.1559C129.918 19.1559 129.235 19.0387 128.588 18.8043C127.946 18.5699 127.385 18.2335 126.911 17.8004C126.437 17.3672 126.065 16.8423 125.79 16.2308C125.515 15.6193 125.382 14.9364 125.382 14.1822C125.382 13.428 125.52 12.7451 125.79 12.1336C126.065 11.5221 126.437 10.9972 126.911 10.564C127.385 10.1309 127.946 9.79454 128.588 9.56012C129.23 9.3257 129.918 9.2085 130.647 9.2085C131.324 9.2085 131.936 9.3257 132.491 9.56012C133.042 9.79454 133.51 10.1309 133.898 10.564C134.28 11.0023 134.576 11.5221 134.784 12.1336C134.993 12.7451 135.095 13.428 135.095 14.1822V15.0995H128.307C128.425 15.66 128.679 16.1034 129.067 16.4346C129.459 16.7659 129.938 16.934 130.509 16.934C130.988 16.934 131.396 16.827 131.727 16.613C132.058 16.399 132.349 16.1238 132.593 15.7823L134.642 17.2806ZM132.165 13.1069C132.18 12.6126 132.017 12.1897 131.676 11.838C131.34 11.4864 130.901 11.3131 130.371 11.3131C130.045 11.3131 129.76 11.3641 129.515 11.4711C129.271 11.573 129.057 11.7106 128.883 11.8686C128.71 12.0317 128.572 12.2202 128.476 12.4343C128.379 12.6483 128.323 12.8725 128.307 13.1069H132.165Z" fill="#121212"/>
<path d="M12.7448 0.713379C5.9009 0.713379 0.351353 6.26293 0.356449 13.1069C0.356449 19.9508 5.906 25.4953 12.7499 25.4953C19.5939 25.4953 25.1383 19.9457 25.1383 13.1018C25.1383 6.25783 19.5888 0.713379 12.7448 0.713379ZM9.8503 21.5408C6.78761 21.5408 4.30076 19.0539 4.30076 15.9912C4.30076 12.9285 6.78761 10.4417 9.8503 10.4417C12.913 10.4417 15.3999 12.9285 15.3999 15.9912C15.4049 19.059 12.9181 21.5408 9.8503 21.5408C9.8503 21.5458 9.8503 21.5458 9.8503 21.5408Z" fill="#E5811F"/>
<path d="M11.797 5.75342C7.21569 5.75342 3.49561 9.46841 3.49561 14.0548C3.49561 16.2461 4.36193 18.3457 5.90602 19.905C3.7606 17.7392 3.77079 14.2434 5.93659 12.0979C8.10239 9.95253 11.5983 9.96272 13.7437 12.1285C15.8891 14.2943 15.8789 17.7902 13.7131 19.9356C11.5626 22.0708 8.0922 22.0708 5.93659 19.9356C9.18275 23.1716 14.4367 23.1614 17.6727 19.9152C20.9087 16.6691 20.8985 11.4151 17.6523 8.17912C16.098 6.62483 13.9934 5.75342 11.797 5.75342Z" fill="#E5811F"/>
<path d="M12.3884 0C5.54445 0 0 5.54955 0 12.3935C0 19.2374 5.54955 24.7819 12.3935 24.7819C19.2374 24.7819 24.7819 19.2323 24.7819 12.3884C24.7819 5.54955 19.2374 0 12.3884 0ZM9.49386 20.8325C6.43116 20.8325 3.94431 18.3456 3.94431 15.2829C3.94431 12.2202 6.43116 9.73337 9.49386 9.73337C12.5566 9.73337 15.0434 12.2202 15.0434 15.2829C15.0485 18.3456 12.5617 20.8325 9.49386 20.8325C9.49386 20.8325 9.49895 20.8325 9.49386 20.8325Z" fill="url(#paint0_linear_4462_602)"/>
<path d="M11.4406 5.04004C6.85924 5.04004 3.13916 8.75503 3.13916 13.3414C3.13916 15.5327 4.00548 17.6323 5.54957 19.1916C3.40415 17.0258 3.41434 13.53 5.58015 11.3846C7.74595 9.23915 11.2418 9.24934 13.3872 11.4151C15.5326 13.5809 15.5225 17.0768 13.3566 19.2222C11.2061 21.3574 7.73576 21.3574 5.58015 19.2222C8.8263 22.4582 14.0803 22.448 17.3162 19.2018C20.5522 15.9557 20.542 10.7017 17.2959 7.46574C15.7416 5.91146 13.6369 5.04004 11.4406 5.04004Z" fill="url(#paint1_linear_4462_602)"/>
<defs>
<linearGradient id="paint0_linear_4462_602" x1="4.99509" y1="5.0079" x2="20.8338" y2="20.8429" gradientUnits="userSpaceOnUse">
<stop stop-color="#FCEE21"/>
<stop offset="1" stop-color="#F9AC19"/>
</linearGradient>
<linearGradient id="paint1_linear_4462_602" x1="16.4295" y1="18.2973" x2="5.85626" y2="7.72408" gradientUnits="userSpaceOnUse">
<stop stop-color="#FCEE21"/>
<stop offset="1" stop-color="#F9AC19"/>
</linearGradient>
</defs>
</svg>
